<svg width="28" height="27" viewBox="0 0 28 27" fill="none" xmlns="http://www.w3.org/2000/svg">
<path d="M13.558 0.453613C6.10764 0.453613 0.0744629 6.30375 0.0744629 13.512C0.0744629 20.7202 6.10764 26.5703 13.558 26.5703C21.0219 26.5703 27.0685 20.7202 27.0685 13.512C27.0685 6.30375 21.0219 0.453613 13.558 0.453613ZM13.5715 23.9586C7.60581 23.9586 2.77387 19.2837 2.77387 13.512C2.77387 7.74017 7.60581 3.06528 13.5715 3.06528C19.5372 3.06528 24.3691 7.74017 24.3691 13.512C24.3691 19.2837 19.5372 23.9586 13.5715 23.9586ZM14.2464 6.98278H12.2218V14.8178L19.3077 18.9312L20.32 17.325L14.2464 13.8384V6.98278Z" fill="url(#paint0_linear)"/>
<defs>
<linearGradient id="paint0_linear" x1="0.0744631" y1="3.86517" x2="28.8119" y2="4.57112" gradientUnits="userSpaceOnUse">
<stop stop-color="#8317EE"/>
<stop offset="0.2375" stop-color="#DF7E22"/>
<stop offset="0.997917" stop-color="#97DF22"/>
</linearGradient>
</defs>
</svg>