<svg width="31" height="27" viewBox="0 0 31 27" fill="none" xmlns="http://www.w3.org/2000/svg">
<path d="M13.7507 20.2991L19.1225 17.3218C20.0268 16.8256 20.0268 15.5589 19.1225 15.0496L13.7507 12.0723C12.8464 11.5761 11.7261 12.216 11.7261 13.2084V19.1499C11.7261 20.1554 12.8464 20.7953 13.7507 20.2991ZM27.9225 5.73902H17.6783L21.6464 1.89987C21.9164 1.63871 21.9164 1.2339 21.6464 0.972731C21.3765 0.711564 20.9581 0.711564 20.6881 0.972731L15.7752 5.72597L10.8623 0.972731C10.5923 0.711564 10.1739 0.711564 9.904 0.972731C9.63406 1.2339 9.63406 1.63871 9.904 1.89987L13.8721 5.73902H3.62788C2.91195 5.73902 2.22534 6.01418 1.71911 6.50396C1.21287 6.99375 0.928467 7.65804 0.928467 8.35069V24.0207C0.928467 25.4571 2.1432 26.6324 3.62788 26.6324H27.9225C29.4072 26.6324 30.622 25.4571 30.622 24.0207V8.35069C30.622 7.65804 30.3376 6.99375 29.8313 6.50396C29.3251 6.01418 28.6385 5.73902 27.9225 5.73902V5.73902ZM26.5728 24.0207H4.97758C4.23524 24.0207 3.62788 23.4331 3.62788 22.7149V9.65653C3.62788 8.93832 4.23524 8.35069 4.97758 8.35069H26.5728C27.3152 8.35069 27.9225 8.93832 27.9225 9.65653V22.7149C27.9225 23.4331 27.3152 24.0207 26.5728 24.0207Z" fill="url(#paint0_linear)"/>
<defs>
<linearGradient id="paint0_linear" x1="0.928467" y1="4.1543" x2="32.5351" y2="5.017" gradientUnits="userSpaceOnUse">
<stop stop-color="#8317EE"/>
<stop offset="0.2375" stop-color="#DF7E22"/>
<stop offset="0.997917" stop-color="#97DF22"/>
</linearGradient>
</defs>
</svg>