<svg width="28" height="28" viewBox="0 0 28 28" fill="none" xmlns="http://www.w3.org/2000/svg">
<path d="M20.1483 8.45471C19.3981 7.72544 18.5063 7.14694 17.5242 6.7525C16.542 6.35807 15.4889 6.15549 14.4255 6.15644V13.9914L8.70276 19.5282C11.8611 22.5838 16.9899 22.5838 20.1618 19.5282C20.9134 18.8008 21.5094 17.9371 21.9156 16.9865C22.3218 16.036 22.5302 15.0173 22.529 13.9887C22.5277 12.9602 22.3168 11.9419 21.9083 10.9923C21.4998 10.0427 20.9017 9.1804 20.1483 8.45471V8.45471ZM14.4255 0.933105C6.97514 0.933105 0.928467 6.78324 0.928467 13.9914C0.928467 21.1996 6.97514 27.0498 14.4255 27.0498C21.8759 27.0498 27.9226 21.1996 27.9226 13.9914C27.9226 6.78324 21.8759 0.933105 14.4255 0.933105V0.933105ZM14.4255 24.4381C8.45982 24.4381 3.62788 19.7632 3.62788 13.9914C3.62788 8.21966 8.45982 3.54477 14.4255 3.54477C20.3912 3.54477 25.2231 8.21966 25.2231 13.9914C25.2231 19.7632 20.3912 24.4381 14.4255 24.4381Z" fill="url(#paint0_linear)"/>
<defs>
<linearGradient id="paint0_linear" x1="0.928467" y1="4.34466" x2="29.6659" y2="5.05061" gradientUnits="userSpaceOnUse">
<stop stop-color="#8317EE"/>
<stop offset="0.2375" stop-color="#DF7E22"/>
<stop offset="0.997917" stop-color="#97DF22"/>
</linearGradient>
</defs>
</svg>