<svg width="25" height="28" viewBox="0 0 25 28" fill="none" xmlns="http://www.w3.org/2000/svg">
<path d="M21.6697 3.55796H20.32V2.25212C20.32 1.53391 19.7127 0.946289 18.9703 0.946289C18.228 0.946289 17.6206 1.53391 17.6206 2.25212V3.55796H6.82298V2.25212C6.82298 1.53391 6.21562 0.946289 5.47328 0.946289C4.73094 0.946289 4.12357 1.53391 4.12357 2.25212V3.55796H2.77387C1.2757 3.55796 0.0879599 4.73321 0.0879599 6.16962L0.0744629 24.4513C0.0744629 25.144 0.358864 25.8082 0.865101 26.298C1.37134 26.7878 2.05794 27.063 2.77387 27.063H21.6697C23.1544 27.063 24.3691 25.8877 24.3691 24.4513V6.16962C24.3691 4.73321 23.1544 3.55796 21.6697 3.55796ZM21.6697 23.1455C21.6697 23.8637 21.0624 24.4513 20.32 24.4513H4.12357C3.38124 24.4513 2.77387 23.8637 2.77387 23.1455V10.0871H21.6697V23.1455ZM5.47328 12.6988H8.17269V15.3105H5.47328V12.6988ZM10.8721 12.6988H13.5715V15.3105H10.8721V12.6988ZM16.2709 12.6988H18.9703V15.3105H16.2709V12.6988Z" fill="url(#paint0_linear)"/>
<defs>
<linearGradient id="paint0_linear" x1="0.0744631" y1="4.35784" x2="25.9411" y2="4.92973" gradientUnits="userSpaceOnUse">
<stop stop-color="#8317EE"/>
<stop offset="0.2375" stop-color="#DF7E22"/>
<stop offset="0.997917" stop-color="#97DF22"/>
</linearGradient>
</defs>
</svg>